/* XPM */
static char *d0487bc660b24905ca38bc00a8d9cc13k0uu2q3UNhJowBsi[] = {
/* columns rows colors chars-per-pixel */
"34 29 154 2 ",
"   c None",
".  c #452614",
"X  c #462817",
"o  c #4A2B17",
"O  c #472818",
"+  c #4C2D1A",
"@  c #512F1A",
"#  c #4E301E",
"$  c #54331D",
"%  c #5A351D",
"&  c #5C391E",
"*  c #603A1E",
"=  c #563621",
"-  c #593721",
";  c #573824",
":  c #5B3B23",
">  c #613E23",
",  c #733E20",
"<  c #644125",
"1  c #694427",
"2  c #64442A",
"3  c #6A4629",
"4  c #66482D",
"5  c #6E4B2D",
"6  c #724A27",
"7  c #6D4D35",
"8  c #724D32",
"9  c #6F5138",
"0  c #735033",
"q  c #73553C",
"w  c #75583E",
"e  c #7A5A3F",
"r  c #775941",
"t  c #7B5D43",
"y  c #7E6046",
"u  c #7F6048",
"i  c #874625",
"p  c #8C4D2A",
"a  c #904E2D",
"s  c #8A5A2F",
"d  c #90502D",
"f  c #925E2D",
"g  c #8D5D32",
"h  c #975934",
"j  c #9A5A35",
"k  c #8E6136",
"l  c #8F6238",
"z  c #906237",
"x  c #9B6A36",
"c  c #916439",
"v  c #966A3D",
"b  c #9C6C39",
"n  c #A06F3C",
"m  c #A2723E",
"M  c #806147",
"N  c #83654B",
"B  c #86694D",
"V  c #886A4F",
"C  c #976B40",
"Z  c #9A6E43",
"A  c #9F7345",
"S  c #8B6D52",
"D  c #8E7154",
"F  c #957759",
"G  c #96795A",
"H  c #987B5C",
"J  c #A17545",
"K  c #A47846",
"L  c #AB7E47",
"P  c #A17749",
"I  c #A37A4A",
"U  c #AA7E4C",
"Y  c #AD824C",
"T  c #B2864E",
"R  c #B4874F",
"E  c #B2844D",
"W  c #AB8452",
"Q  c #AF8853",
"!  c #B58A50",
"~  c #B68A51",
"^  c #B48B55",
"/  c #BA8D55",
"(  c #BA8E55",
")  c #BA8E56",
"_  c #BB8E56",
"`  c #BB8F56",
"'  c #BA8F56",
"]  c #B98D54",
"[  c #B58E59",
"{  c #B88F58",
"}  c #BB9056",
"|  c #B7915A",
" . c #BC955B",
".. c #BC955B",
"X. c #BD945C",
"o. c #BD965C",
"O. c #BA935C",
"+. c #BF985F",
"@. c #BF9A63",
"#. c #C0955B",
"$. c #C0965B",
"%. c #C1965C",
"&. c #C1975C",
"*. c #C1975D",
"=. c #C2975F",
"-. c #C1965C",
";. c #C2985D",
":. c #C2995F",
">. c #C29960",
",. c #C19A60",
"<. c #C29B61",
"1. c #C39A61",
"2. c #C29B62",
"3. c #C49B62",
"4. c #C29C61",
"5. c #C39C63",
"6. c #C39D63",
"7. c #C39E63",
"8. c #C49D62",
"9. c #C49D63",
"0. c #C49F63",
"q. c #C59F64",
"w. c #C29D64",
"e. c #C5A065",
"r. c #C6A065",
"t. c #C5A066",
"y. c #C5A166",
"u. c #C6A167",
"i. c #C6A166",
"p. c #C6A267",
"a. c #C4A067",
"s. c #C6A268",
"d. c #C7A469",
"f. c #C5A269",
"g. c #C8A268",
"h. c #C8A368",
"j. c #CBA368",
"k. c #C8A469",
"l. c #CBA568",
"z. c #C8A56A",
"x. c #C9A56A",
"c. c #C9A56B",
"v. c #C8A56B",
"b. c #CCA569",
"n. c #CCA56A",
"m. c #CAA76C",
"M. c #CAA76D",
"N. c #CBA86D",
"B. c #CBAA6F",
"V. c #CDAA6F",
"C. c #CEAC71",
"Z. c #CEAD71",
"A. c #CEAD72",
"S. c #D0AE72",
/* pixels */
"  2 < 2 2             < 2 2 2 2 2 2 2 2 2 2 2             3 1 1 1   ",
"8 x.....> - - - : :   < ..<.q.q.t.h.h.h.h.t.2   : : : - = < ..X.t.5 ",
"0 N.t.t.< t u u N N 2 N 4 L E E T T ~ ~ ~ < 9 4 N N M u t 3 t.t.x.5 ",
"8 V.t.t.: N B B V V e V V < : : - : : : : q V q B B B B N < 9.t.m.5 ",
"5 Z.x.x.: V S S S S e S S S < p p p p > q S S q S S V V V 2 m.m.N.5 ",
"5 Z.d.x.: V S S S S e S D D < j j j j > q S S q S S S S S < N.m.N.5 ",
"5 S.S.Z.: D F G G G e G H H 1 h j j h > r G F q G G F G F < Z.Z.Z.5 ",
": t.( ( % 7 q q q q : w q w : : : : > - 9 w q : q q q q q % ( ( t.- ",
": t.( ( - 7 9 q q q - q q q : n.h.x.n.> 7 q q 2 q q q q 9 % ( ( f.- ",
"- 6.( ( - % % - % % $ % % : =.;.=.=.=.=.> % % % % % % % % % ( ( 6.- ",
"- <.( } =.<.3.3.6.6.9.6.X.> ;.;.#.#.#.#.> x m <.9.9.9.9.<.<.} ( 6.- ",
"- +.( ( ( ( ( ( ] ~ E E Y : =.=.% % #.#.: x n Y T ~ ] ( ( ( ( ( +.- ",
"  < < > < < < < < > : & % $ E T < > E E : > < < < 3 1 1 < < < < >   ",
"- a.w.w.w.t.w.f.w.w.@.@.| @ E E 6 6 E E $ f b | <.6.w.q.t.a.d.f.f.: ",
"= w.{ { { ( { { ! ! Y Y U @ m m <.6.m m @ f x L U Y E ! ! ! { { f.> ",
"= w.{ { % & & * * & * * * + $ b b b b % & & % % % % % % % $ { { f.> ",
"= w.^ ^ % 7 7 8 8 8 8 8 8 8 + $ $ $ $ + 8 8 8 8 8 8 8 8 7 $ ^ ^ w.: ",
"= O.W W % 7 7 t t u M u u u % , , , , $ 0 u u u u t t t q $ W W O.: ",
"= O.W W % 7 7 r t t u u M t % a a d p % 8 u u u u t t t q $ W W O.: ",
"= { W W $ : : = - = = = - = - p a a p % : - - - ; ; : ; : @ W W | - ",
"= ^ P P $ q q N N V V V S S $ p p p p % 8 D S S S S V B u @ P P ^ - ",
"= Q P P @ 7 7 w w r t t t t @ i i i i $ 8 t t t t t t t q + P P W = ",
"= W P P + 7 7 w r r r r r r + . + + + + 8 t t t t t t t q + P P W % ",
"$ Y Z Z + 7 7 q r w r r r + | | | | { [ + t t t t t t t q + Z Z I $ ",
"+ I Z Z + = : - - $ $ % $ ^ U U U I U I { + % & % % % $ $ o Z Z K $ ",
"+ J Z Z + J K Q ! Q W W $ J J J J A J J A + g W Q W W W P o Z Z J $ ",
". b k z + g k c c v C v @ c z z z z z z z + s v c c v v v + k z J + ",
". v l l + + $ # # + + + + + + + + + + + + + + + + + + o + o l l v . ",
"X O + + +                                                 + . . . . "
};
