/* XPM */
static char *_12e1b1d772a45c4a5d797ffcc92875f06SyNJyvcr6NkF1d[] = {
/* columns rows colors chars-per-pixel */
"30 30 2 1 ",
"  c #EECA84",
". c #E9AC87",
/* pixels */
"                              ",
"                              ",
"              ..              ",
"                              ",
"                              ",
"                              ",
"  ...                         ",
" .  ..                        ",
".    .                        ",
"                              ",
"                              ",
"                              ",
"                              ",
"                              ",
"                              ",
"                              ",
"                              ",
"                              ",
"                              ",
"                              ",
"                              ",
"                              ",
"        ....                  ",
"         ....                 ",
"                              ",
"                              ",
"                              ",
"                   .....      ",
"                  ..   .      ",
"                  ..          "
};
