/* XPM */
static char *dc84d84b8b8741d3b35bf5066184ef9ewe81wqsnTStU3miz[] = {
/* columns rows colors chars-per-pixel */
"34 33 145 2 ",
"   c None",
".  c #452614",
"X  c #462817",
"o  c #4A2B17",
"O  c #472818",
"+  c #4C2D1A",
"@  c #512E1A",
"#  c #4E301E",
"$  c #55331C",
"%  c #5A361D",
"&  c #5C381D",
"*  c #603A1E",
"=  c #563621",
"-  c #593621",
";  c #573824",
":  c #5B3A22",
">  c #613E24",
",  c #733E20",
"<  c #634027",
"1  c #654328",
"2  c #68462A",
"3  c #6B492B",
"4  c #794A27",
"5  c #774A28",
"6  c #784A28",
"7  c #674931",
"8  c #6D4D35",
"9  c #724E32",
"0  c #6F5138",
"q  c #725032",
"w  c #7D5431",
"e  c #73553C",
"r  c #76583F",
"t  c #78593E",
"y  c #775941",
"u  c #7B5D43",
"i  c #7E6046",
"p  c #7F6048",
"a  c #874625",
"s  c #8E4D2B",
"d  c #904E2D",
"f  c #8A5A2F",
"g  c #90502D",
"h  c #805631",
"j  c #835832",
"k  c #8A5D34",
"l  c #9A5A35",
"z  c #8C6037",
"x  c #8E6339",
"c  c #916337",
"v  c #996735",
"b  c #9C6B37",
"n  c #916439",
"m  c #966A3D",
"M  c #9B6E3E",
"N  c #A0713B",
"B  c #83644B",
"V  c #87694D",
"C  c #896A4F",
"Z  c #976B40",
"A  c #9A6E43",
"S  c #9D7345",
"D  c #8C6E52",
"F  c #8F7154",
"G  c #A27544",
"H  c #A47845",
"J  c #AA7D47",
"K  c #A17749",
"L  c #A3794A",
"P  c #AC7E4A",
"I  c #AD824C",
"U  c #B3864F",
"Y  c #AB8452",
"T  c #AF8853",
"R  c #B78B53",
"E  c #B68951",
"W  c #B28A54",
"Q  c #B38B55",
"!  c #B58C56",
"~  c #B78D57",
"^  c #B78E57",
"/  c #B78E56",
"(  c #B18953",
")  c #B88B53",
"_  c #B98D54",
"`  c #B98D55",
"'  c #B88C54",
"]  c #BA8D55",
"[  c #BA8E55",
"{  c #B88E57",
"}  c #BA8E56",
"|  c #BB8E56",
" . c #B58E59",
".. c #B88F58",
"X. c #B7915A",
"o. c #B9915B",
"O. c #BB925B",
"+. c #BB935C",
"@. c #BC945D",
"#. c #BE955C",
"$. c #B9925C",
"%. c #BE9860",
"&. c #BF9860",
"*. c #C1975C",
"=. c #C0975E",
"-. c #C19960",
";. c #C09A60",
":. c #C19A60",
">. c #C19A61",
",. c #C19B61",
"<. c #C29A61",
"1. c #C29B61",
"2. c #C19A62",
"3. c #C19B62",
"4. c #C29C62",
"5. c #C39C62",
"6. c #C39D63",
"7. c #C09B64",
"8. c #C19D64",
"9. c #C29F65",
"0. c #C29E66",
"q. c #C39E66",
"w. c #C39F66",
"e. c #C49E64",
"r. c #C49F64",
"t. c #C6A065",
"y. c #C5A066",
"u. c #C4A067",
"i. c #C6A066",
"p. c #C6A166",
"a. c #C6A167",
"s. c #C7A167",
"d. c #C7A267",
"f. c #C4A168",
"g. c #C5A168",
"h. c #C7A268",
"j. c #C6A369",
"k. c #C7A46A",
"l. c #C8A368",
"z. c #CBA568",
"x. c #C9A56A",
"c. c #C9A56B",
"v. c #CAA66C",
"b. c #CEAC70",
"n. c #CFAD71",
/* pixels */
"  1 1 1 1             1 > 1 1 3 3 3 3 1 1 < 1             < 1 1 1   ",
"9 x.3.3.> : : : : :   1 a.a.a.a.a.a.a.a.a.a.>   : : : : : > 3.3.x.9 ",
"q n.x.x.1 u p p p p 1 B 2 U U U U U U U U 3 0 1 B B p p u 1 v.x.n.q ",
"9 n.x.x.: B V V V V t V V > : 1 1 1 : : : 0 V t V V V V B : x.x.n.9 ",
": a.} } % 8 e e e r : r r e > l l l l > 8 r r : r e e e 8 % } } a.: ",
": a.} } : 8 0 e e e : e e e > > > > > > 7 e e : e e e 0 8 : } } a.: ",
": 6.} } : % % : % % $ % % % > x.x.x.x.> % % % $ % % : % % : } } j.: ",
": a.} } } } } ) ) E E E I : x.x.% % x.x.: b H } } } } } } } } } a.= ",
": l.l.a.3.3.3.3.3.=.=.#.I : z.x.3 3 x.x.: b H 3.3.3.3.6.6.e.e.a.a.: ",
": S x z z z z z z z z z z : =.=.j j =.=.: w j z z z z z z z z x S : ",
": S x x : : > > > 1 > > : : z =.3.6.=.k : : : : : : : : : : x x K : ",
"= S x z : : : : : : : : : : : k k k k : : : : : : : : : : : z x K : ",
": k j j = : : : : : : : : : : : : : : : : : : : : : : : : : j j z : ",
": k j w : : : : : : : : : : : : : : : : : > : : : : : : : : h j k : ",
": 4 6 5 : > > 1 1 1 1 1 1 1 1 1 1 1 1 1 < < 1 1 < < 1 < 1 : 5 6 4 : ",
": 6 6 6 : 1 1 1 1 1 1 1 1 1 1 1 1 1 1 1 1 1 1 1 1 1 1 1 1 : 6 6 6 : ",
"  : = = : : : : : : : : : : : : : : : : : : : : : : > > : > > > >   ",
": j.w.w.w.a.w.j.w.w.7.&.#.O.& +.O.O.O.& v H O.3.6.&.3.e.a.a.k.j.j.: ",
"= w.^ ^ ^ } ....( ( I J J J & J & & J & v N J J U U U ( ( ( ^ ^ j.> ",
"= w.^ ^ & & * * * * * & & % & J J J J & & & & % % % % % % $ ^ ^ j.> ",
"= w.W W % 8 8 9 9 9 9 9 9 9 + & & & & + 9 9 9 9 9 9 9 9 8 $ W W w.: ",
"= +.Y Y % 8 8 u u i i i i i & , , , , % q i i i i u u u r $ Y Y +.: ",
"= +.Y Y % 8 8 u u u i i i u % d d g s % 9 i i i i u u u r $ Y Y +.: ",
"=  .Y Y $ : : = : = = = = = : s d d s % : : : : = = : ; : @ Y Y O.: ",
"= W K K $ e r B B V V C D D $ s s s s % 9 F D D D D C V i @ K K W : ",
"= T K K @ 8 8 r r u u u u u @ a a a a % 9 u u u u u u u e + K K Y % ",
"= Y K K + 8 8 r y y y u u u + X + + + + 9 u u u u u u u r + K K Y $ ",
"$ I A A + 8 8 r y r y y y + X.X.X.X. . .+ u u u u u u u e + A A L $ ",
"+ L A A + = : : - $ $ % $ W P P P L L L  .+ % & % % % $ $ o A A H $ ",
"+ G A A + G H T ( T Y Y $ G G G G S G G S + k Y T Y Y Y K o A A G $ ",
"X M z n + k z n n m Z m @ n n c c c c c c + f m n n m m m + z n G + ",
"X m z z + + $ # # + + + + + + + + + + + + + + + + + + o + o z z m X ",
"X O + + +                                                 + X X X X "
};
