/* XPM */
static char *c3b79523f2ed4d42f6ce9736921c3ef0G2nUgNHoGnpl0Erm[] = {
/* columns rows colors chars-per-pixel */
"27 38 116 2 ",
"   c None",
".  c #49276D",
"X  c #4B296E",
"o  c #5A346D",
"O  c #4E2D71",
"+  c #512E72",
"@  c #543173",
"#  c #5B3572",
"$  c #593678",
"%  c #5C3B7B",
"&  c #6C3B67",
"*  c #643C74",
"=  c #633F7B",
"-  c #7E4463",
";  c #754B6C",
":  c #7F526C",
">  c #6F4577",
",  c #63427E",
"<  c #724777",
"1  c #734877",
"2  c #774B79",
"3  c #7A4D7A",
"4  c #7E537F",
"5  c #834762",
"6  c #824C6C",
"7  c #865267",
"8  c #8C5667",
"9  c #8E5F6C",
"0  c #84557C",
"q  c #8C5B7E",
"w  c #95646C",
"e  c #9B696C",
"r  c #B67F6B",
"t  c #C26A56",
"y  c #B8816B",
"u  c #C58C6B",
"i  c #D58960",
"p  c #654380",
"a  c #6A4682",
"s  c #674A85",
"d  c #6B4985",
"f  c #6C4E88",
"g  c #714E89",
"h  c #6E528A",
"j  c #7A5484",
"k  c #75538D",
"l  c #78548E",
"z  c #76588F",
"x  c #725590",
"c  c #765890",
"v  c #7E5B92",
"b  c #7D6097",
"n  c #8A5B81",
"m  c #815C88",
"M  c #825E95",
"N  c #86618A",
"B  c #8A628B",
"V  c #8F688E",
"C  c #966481",
"Z  c #9E6A82",
"A  c #966B8B",
"S  c #9B6E8B",
"D  c #856197",
"F  c #8E6790",
"G  c #856499",
"H  c #896599",
"J  c #85699E",
"K  c #8D6A9D",
"L  c #996C92",
"P  c #906C9F",
"I  c #A36D84",
"U  c #A67084",
"Y  c #AA7385",
"T  c #A0708C",
"R  c #B27787",
"E  c #B47C8C",
"W  c #AC7B95",
"Q  c #AD7C98",
"!  c #926EA1",
"~  c #9572A4",
"^  c #9873A4",
"/  c #967CAD",
"(  c #987EAE",
")  c #A279A1",
"_  c #A17EAC",
"`  c #BD828A",
"'  c #BE8796",
"]  c #B6849B",
"[  c #BA869A",
"{  c #9B81B0",
"}  c #A987B3",
"|  c #A588B5",
" . c #AB92BD",
".. c #C2858B",
"X. c #CC8D8D",
"o. c #CF908E",
"O. c #D2918F",
"+. c #C68C96",
"@. c #C28B98",
"#. c #CE9295",
"$. c #D39492",
"%. c #D89791",
"&. c #DA9891",
"*. c #B19AC4",
"=. c #B29AC3",
"-. c #BBA1C8",
";. c #BDA4CA",
":. c #C4A9CD",
">. c #CCB1D3",
",. c #CFB6D7",
"<. c #D2BDDC",
"1. c #D7C2E1",
"2. c #D9C5E2",
"3. c #E3D0EC",
"4. c #EEDBF3",
"5. c #FCEBFF",
/* pixels */
"                      . . .             . . . .       ",
"                  . . Z Z Z C .       b =.=.=.=.J     ",
"                . I I &.&.&.O.I C . v <.5.5.5.5.1.J   ",
"              . I %.&.&.&.&.&.$.Q q J 5.5.5.5.5.5.~   ",
"            . U $.&.&.B B B A +.F X.T  .5.5.5.5.5.~   ",
"          . U $.&.B N K K K H j , ] X.S / ;.-.3.5.~   ",
"        . U $.&.N K K ^ ^ ^ ^ M @ V &.o.C { :.,.5.~   ",
"        . ` &.N K ^ ^ ^ ^ ^ ^ K h H S &.I ( >._ } f   ",
"        . ` N K ^ ^ ^ @ @ @ % ^ ! ^ H S I 6 R | *.x   ",
"        . s K ^ ^ @ + . . . X + = ^ ^ H , 9 e @ @ O   ",
"        . G ^ ^ @ . . 4.. % 2.. X = ^ ^ l 9 e .       ",
"        . H ^ ^ + . . X . . X . . % ^ v . . .         ",
"        . H ^ ^ $.@ . . . . . X > +.v 3 %.%.C         ",
"        O G ^ ^ ^ $.@ @ @ @ @ > +.^ v p ^ [ &.q       ",
"      . D k P ^ ^ ^ $.$.$.$.$.+.^ ^ v 3 $.$.&.q       ",
"      @ G k P ^ ^ ^ ^ ^ ^ ^ ^ ^ ^ ^ v a ) [ $.n       ",
"    . M ^ f K ^ ^ ^ ^ ^ H H ^ ^ ^ ^ M 4 ` ` W f       ",
"    $ G H $ v ^ ^ ^ D M . + D H ^ ^ ! f . o j g $     ",
"  . B ^ %   . K ^ ^ . . . . . $ ^ ^ v . . 9 e g d     ",
"  . U L $   . K ^ ^ 2 2 . X 2 j ^ ^ v .   9 e g d     ",
"  = E 1     . l ^ ^ @.' . @ @.[ ^ P g     9 r 4 p     ",
". B #.1       . P ^ ^ ^ . @ ^ ^ ^ M .     : u w       ",
". I &.I *     . P ^ ^ ^ q n ^ ^ ^ M .       w y ;     ",
". I &.@.=     f g ^ ^ ^ [ ] ^ ^ K j 0       8 i 7     ",
". B #.@.=   . W + ^ ^ ^ ^ ^ ^ ^ D < Y .     5 t -     ",
"  p 4 q *   . X.@ a d d d d d d , < Y .     & - &     ",
"            C 0                   * q q               ",
"          . ..#                     2 I .             ",
"          . ..# .                 . 2 I .             ",
"        . % m p X                 O d j $             ",
"        . v K K O                 % K K g .           ",
"        . H ^ c O                 $ v ^ l .           ",
"        . s h f X . . . . . . . . @ f h , .           ",
"      . v ! ! h X . . . . . . . . @ z ! ! g           ",
"    . . D ^ ^ ^ O . . . . . . . . % ^ ^ ^ l .         ",
"    . . D ^ ^ @ . . . . . . . . . X p ^ ^ l .         ",
"      . . . . . . . . . . . . . . . . . . . .         ",
"              . . . . . . . . . . . .                 "
};
