/* XPM */
static char *_a08ff83ab0c4406cb657e6aaadb09d2blvSXokvsiFmdc0A[] = {
/* columns rows colors chars-per-pixel */
"25 16 8 1 ",
"  c #3E4652",
". c None",
"X c #252329",
"o c #F7ECD5",
"O c #BDB3AC",
"+ c #615E70",
"@ c #3B3B4D",
"# c #968C94",
/* pixels */
"    .....................",
"     ....................",
"      ...................",
".      ..................",
".      ..................",
"XX ..  ..................",
"  XXX....................",
"  ...Xooooo..............",
" ....OoooooO.............",
".....oooooo+.............",
".....oo++oo@+o...........",
".....oo@@o+oOo++.........",
".....Ooooooooo++XXXo##+..",
"......OOoOoOOo+ooooXX#+..",
".oooooooOO+o+oooo++++XX..",
"ooooooooOO+O+Oo+++++...XX"
};
