/* XPM */
static char *_265a7446c484e0ebf40e6804dade90eafh1MooYLa6vFzjM[] = {
/* columns rows colors chars-per-pixel */
"32 27 5 1 ",
"  c None",
". c #885180",
"X c #EECA84",
"o c #D78B83",
"O c #49276D",
/* pixels */
"                .....           ",
"             ...XXXXX..         ",
"           ..XXXXXXXXXX..       ",
"        ...oXXXXXXXXXXXXX.      ",
"      ..XXXoXXXXXXXXXXXXXX..    ",
"     .XXXXXXoXXXXXXXXXXXXXXX.   ",
"    .XXXXXXXXXXXXXXXXXXXXXXXXO  ",
"   OXXXXXXXXXXXXXXXXXXXXXXXXXO  ",
"   OXXXXXXXXXXXXXXXoooooXXXX.OO ",
"  OOoXXXXXXX....ooooooXXXXX..OoO",
" OoOoooXXX...XXXXXXX.XXXX.....oO",
"Ooo.ooo.....XXXXXXXX.XXo.....ooO",
"Oo...oo...OOoXXXXXX..ooo....OooO",
"O....oo....Oooooooo..ooo....OOoO",
"O..XXooo...Oooooooo..ooo.XXXOOOO",
"O..XXXoo...Ooooooo...oXXXXXXOOOO",
" O.oXXXo...Ooooooo...XXXXXXXOOOO",
" O.ooXXXOOOOooooo....XXXXXX.OOOO",
" O.oooo...OOOoooo....ooXXX..OOOO",
"  Ooooo...OOOoXXXXXXX.oooo...OOO",
"  Ooooo...OOOXXXXXXXX.oooo...OO ",
"   .ooo...OOOooXXXXX..oooo..XXO ",
"    .oo..OOOoooooooo..oooo.XXX. ",
"     .OOOOOOoooooooo...oo.XXX.. ",
"          Ooooooooo....oo.oo..  ",
"            ooooooo....oo.oo.   ",
"              ooooo...          "
};
